<svg width="438" height="512" viewBox="0 0 438 512" fill="none" xmlns="http://www.w3.org/2000/svg">
<path d="M314.979 0C287.683 1.888 255.779 19.36 237.187 42.112C220.227 62.752 206.275 93.408 211.715 123.2C241.539 124.128 272.355 106.24 290.211 83.104C306.915 61.568 319.555 31.104 314.979 0Z" fill="white"/>
<path d="M422.849 171.775C396.642 138.911 359.81 119.839 325.026 119.839C279.106 119.839 259.682 141.823 227.779 141.823C194.883 141.823 169.891 119.903 130.179 119.903C91.1714 119.903 49.6357 143.743 23.2998 184.511C-13.724 241.919 -7.38802 349.854 52.6116 441.789C74.0835 474.685 102.755 511.677 140.259 511.997C173.635 512.317 183.043 490.589 228.259 490.365C273.474 490.109 282.05 512.285 315.362 511.933C352.898 511.645 383.138 470.653 404.61 437.758C420.001 414.174 425.729 402.302 437.665 375.678C350.85 342.622 336.93 219.167 422.849 171.775Z" fill="white"/>
</svg>
