<svg width="16" height="16" viewBox="0 0 16 16" fill="none" xmlns="http://www.w3.org/2000/svg">
<path d="M8 0.666504C3.58 0.666504 0 4.1865 0 8.52784C0 12.0018 2.292 14.9478 5.47 15.9865C5.87 16.0605 6.01667 15.8172 6.01667 15.6085C6.01667 15.4218 6.01 14.9272 6.00667 14.2718C3.78133 14.7458 3.312 13.2172 3.312 13.2172C2.948 12.3098 2.422 12.0672 2.422 12.0672C1.69733 11.5798 2.478 11.5898 2.478 11.5898C3.28133 11.6445 3.70333 12.3998 3.70333 12.3998C4.41667 13.6018 5.576 13.2545 6.03333 13.0538C6.10533 12.5452 6.31133 12.1992 6.54 12.0025C4.76333 11.8058 2.896 11.1298 2.896 8.11784C2.896 7.25984 3.206 6.5585 3.71933 6.0085C3.62933 5.80984 3.35933 5.0105 3.78933 3.92784C3.78933 3.92784 4.45933 3.71717 5.98933 4.73384C6.62933 4.55917 7.30933 4.4725 7.98933 4.4685C8.66933 4.4725 9.34933 4.55917 9.98933 4.73384C11.5093 3.71717 12.1793 3.92784 12.1793 3.92784C12.6093 5.0105 12.3393 5.80984 12.2593 6.0085C12.7693 6.5585 13.0793 7.25984 13.0793 8.11784C13.0793 11.1378 11.2093 11.8025 9.42933 11.9958C9.70933 12.2318 9.96933 12.7138 9.96933 13.4505C9.96933 14.5025 9.95933 15.3478 9.95933 15.6032C9.95933 15.8092 10.0993 16.0552 10.5093 15.9765C13.71 14.9445 16 11.9965 16 8.52784C16 4.1865 12.418 0.666504 8 0.666504Z" fill="white"/>
</svg>
